<?xml version="1.0" encoding="UTF-8"?>
<svg id="Layer_1" data-name="Layer 1" xmlns="http://www.w3.org/2000/svg" viewBox="0 0 260.26 260.26">
  <defs>
    <style>
      .cls-1 {
        fill: #fff;
      }

      .cls-2 {
        fill: #f15a28;
      }

      .cls-2, .cls-3 {
        stroke: #231f20;
        stroke-miterlimit: 10;
        stroke-width: 2px;
      }

      .cls-3 {
        fill: #231f20;
      }
    </style>
  </defs>
  <circle class="cls-1" cx="130.13" cy="130.13" r="130.13"/>
  <g>
    <path class="cls-2" d="m201.56,130.65c.16,41.39-33.93,72.38-71.87,73.2-41.76.91-74.41-33.42-75.11-72.37-.74-40.87,32.83-73.48,69.95-74.6,44.96-1.35,77.6,33.23,77.03,73.77h0Z"/>
    <path class="cls-2" d="m256.64,128.67c.05,19.13-3.9,37.59-12.06,54.7-11.9,24.96-29.9,44.17-56.02,55.21-12.71,5.37-25.88,8.53-39.24,11.27-2.76.57-4.73.1-4.46-3.73.36-5.31.49-10.69.01-15.97-.4-4.39,1.67-5.37,5.31-6.28,13.87-3.47,27.08-8.6,38.93-16.83,19.33-13.42,30.47-32.14,35.46-54.82,1.58-7.2,3.24-14.47,2.98-21.83-.92-26.25-8.8-49.87-27.79-68.81-11.6-11.57-25.24-19.8-41.32-23.78-3.79-.94-7.26-3.05-11.36-2.94-2.27.06-2.07-1.81-2.08-3.23-.06-6.16.04-12.33-.05-18.49-.03-2.19.65-2.95,2.92-2.67,22.87,2.84,44.16,9.52,62.34,24.48,12.86,10.58,23.88,22.61,31.88,37.26,7.12,13.03,11.67,26.88,13.7,41.66.68,4.96.58,9.86.86,14.8h-.01Z"/>
    <path class="cls-3" d="m3.61,128.46c.28-4.94.18-9.84.86-14.8,2.03-14.78,6.58-28.63,13.7-41.66,8-14.65,19.02-26.68,31.88-37.26,18.18-14.96,39.47-21.64,62.34-24.48,2.27-.28,2.95.48,2.92,2.67-.09,6.16.01,12.33-.05,18.49-.01,1.42.19,3.29-2.08,3.23-4.1-.11-7.57,2-11.36,2.94-16.08,3.98-29.72,12.21-41.32,23.78-18.99,18.94-26.87,42.56-27.79,68.81-.26,7.36,1.4,14.63,2.98,21.83,4.99,22.68,16.13,41.4,35.46,54.82,11.85,8.23,25.06,13.36,38.93,16.83,3.64.91,5.71,1.89,5.31,6.28-.48,5.28-.35,10.66.01,15.97.27,3.83-1.7,4.3-4.46,3.73-13.36-2.74-26.53-5.9-39.24-11.27-26.12-11.04-44.12-30.25-56.02-55.21-8.16-17.11-12.11-35.57-12.06-54.7h-.01Z"/>
  </g>
</svg>