<?xml version="1.0" encoding="UTF-8"?>
<svg id="Layer_1" data-name="Layer 1" xmlns="http://www.w3.org/2000/svg" viewBox="0 0 1272.33 348.08">
  <defs>
    <style>
      .cls-1 {
        fill: #f05926;
      }

      .cls-2 {
        fill: #231f20;
      }
    </style>
  </defs>
  <path class="cls-2" d="m518.8,124.7c15.92,3.86,27.08,12.25,31.8,27.43,2.65,8.53,4.47,17.41,4.57,26.37.26,22.99.03,45.99.22,68.99.03,3.51-1.21,4.04-4.25,3.97-7.83-.18-15.67-.23-23.49.02-3.47.11-4.45-.85-4.42-4.38.16-21.5.28-43-.05-64.49-.13-8.15-1.77-16.08-6.12-23.42-5.05-8.51-12.94-12.24-21.75-15.04-6.06-1.93-12.28-1.91-18.51-1.93-11.33-.04-22.66-.06-34,.02-2.32.02-3.64-.18-3.56-3.12.21-7.66.22-15.33,0-22.99-.08-2.95,1.26-3.14,3.57-3.12,10,.09,20,.28,29.99-.02,12.42-.37,24.61-3.74,33.94-11.43,12.87-10.6,17.86-24.88,12.72-41.95-4.38-14.54-13.26-24.55-27.57-28.91-9.49-2.89-19.43-2.15-29.35-.74-7.61,1.08-14.35,3.2-20.67,7.67-4.26,3.01-7.3,6.95-9.25,11.24-4.46,9.86-6.65,20.34-7.48,31.28-2.11,27.76-.01,55.5-.44,83.25-.43,27.82-.18,55.66,0,83.49.03,3.81-.99,4.76-4.69,4.62-7.65-.3-15.33-.28-22.99-.01-3.56.13-4.38-1.02-4.36-4.46.16-48.33.33-96.65.11-144.98-.07-15.9.63-31.55,5.46-46.85,3.16-10.02,7.68-19.31,14.14-27.54,9.77-12.45,22.47-20.85,37.75-24.83,13.51-3.52,27.3-3.35,41.12-1.68,15.88,1.92,29.69,8.41,40.96,19.51,11.89,11.71,17.91,26.14,18.17,43.14.23,14.78-2.13,28.76-10.63,40.99-5.33,7.67-11.78,14.55-20.94,19.92Z"/>
  <path class="cls-2" d="m1027.97,65.37c6.14-10.46,13.4-19.91,21.9-27.96,13.86-13.11,29.15-23.77,48.47-28.7,10.3-2.63,20.6-3.53,30.88-5.26,3.47-.59,5.17.24,4.94,4.34-.36,6.31-.39,12.68,0,18.98.28,4.42-2.14,5.2-5.49,5.41-13.96.89-27.23,4.41-39.53,11.04-17.6,9.49-29.46,24.09-36.87,42.5-6.92,17.19-9.27,35.24-7.82,53.45,1.65,20.68,8.76,39.42,23.31,55.11,14.89,16.05,33.66,24.12,54.36,28.78,2.32.52,4.97.93,7.2.87,4.71-.12,4.97,2.01,4.8,5.66-.25,5.49-.45,11.03.06,16.48.44,4.74-1.47,5.22-5.57,5.28-30.69.5-55.57-11.88-76.52-33.55-8.48-8.77-16.21-18.1-23.4-28.77-3.95,4.82-6.8,10.19-10.37,15.01-18.87,25.5-43.61,40.96-75.22,45.21-5.66.76-11.28,1.72-17,1.99-2.13.1-2.91-.45-2.87-2.7.12-7.33.07-14.66.03-21.99-.01-2.23.81-3.15,3.21-3.35,20.1-1.69,38.43-8.36,54.12-21.08,15.28-12.39,24.42-28.86,28.61-47.95,2.43-11.07,3.42-22.35,3.09-33.74-.7-23.64-8.05-44.43-24.86-61.62-14.51-14.84-32.23-22.76-52.5-25.63-.79-.11-1.52-.59-2.3-.77-2.98-.7-7.33,1.2-8.77-1.7-1.4-2.84-.53-6.82-.57-10.3-.05-4.33.16-8.67-.07-12.99-.15-2.76.88-3.33,3.4-3.25,32.19,1.11,60.91,10.48,83.14,35.06,5.48,6.06,10.28,12.72,14.04,20.05,1.03,2,1.78,4.21,4.16,6.11Z"/>
  <path class="cls-1" d="m1217.25,127.91c.16,41.39-33.93,72.38-71.87,73.2-41.76.91-74.41-33.42-75.11-72.37-.74-40.87,32.83-73.48,69.95-74.6,44.96-1.35,77.6,33.23,77.03,73.77Z"/>
  <path class="cls-2" d="m843.34,138.02c-18.5,0-37,.21-55.48-.15-4.74-.09-5.54,1.81-4.46,5.31,4.27,13.73,8.42,27.38,16.51,39.69,13.44,20.46,32.67,31.36,55.89,36.26,14.42,3.04,29.09,3.29,43.76,2.73,3.52-.13,5.01.3,4.8,4.35-.38,7.31-.2,14.66-.05,21.99.05,2.42-.75,2.95-3.08,3.12-10.86.79-21.7,1.24-32.54-.15-15.48-1.99-30.67-5.32-45.12-11.29-14.89-6.15-28.39-14.48-39.94-25.97-15.05-14.98-24.21-33.06-29.31-53.39-3.46-13.78-5.35-27.91-3.9-42.01,2.78-27.04,10.81-52.15,29.03-73.33,13.29-15.45,29.88-25.65,48.72-32.38,14.43-5.16,29.49-7.45,44.78-8.82,9.29-.83,18.52-.39,27.77-.85,2.85-.14,3.67.79,3.6,3.61-.19,6.99-.21,14,0,20.99.09,2.93-.91,3.57-3.65,3.5-9.6-.24-19.19-.18-28.75.99-22.16,2.7-43.09,8.98-59.97,24.16-14.66,13.19-23.04,30.44-27.62,49.51-.88,3.69,2.12,2.9,4.11,2.9,22.33-.02,44.66-.08,66.98-.12,14.83-.03,29.66.07,44.49-.14,3.49-.05,4.56.88,4.41,4.41-.28,6.99-.31,14,0,20.99.17,3.7-1.19,4.28-4.51,4.25-18.83-.16-37.66-.08-56.49-.08v-.08Z"/>
  <path class="cls-2" d="m295.62,138.03c-18.16,0-36.32.16-54.48-.1-4.96-.07-6.39.44-5,6.07,4.71,18.99,12,36.72,25.61,50.94,12.8,13.38,29.02,20.8,47.29,24.33,14.38,2.77,28.8,3.11,43.3,2.84,3.49-.07,4.52.84,4.37,4.36-.29,7.15-.08,14.32-.07,21.49,0,1.66.31,3.28-2.34,3.35-7.26.17-14.56,1.3-21.74.72-12.78-1.03-25.63-2.27-38.02-5.89-15.31-4.48-30.11-10.34-43.24-19.52-20.25-14.17-34.41-33.09-41.84-56.75-3.32-10.57-5.19-21.42-6.27-32.52-2.59-26.45,4.06-50.72,16.04-73.86,7.7-14.86,19.04-26.58,32.59-36.27,11.75-8.4,24.95-13.93,38.73-17.53,11.12-2.9,22.58-4.68,34.16-5.72,9.45-.85,18.85-.39,28.27-.82,2.71-.12,3.8.58,3.72,3.54-.2,7.16-.16,14.33,0,21.49.05,2.44-.69,3.12-3.1,3.06-9.76-.23-19.54-.34-29.24.99-20.4,2.79-39.79,7.98-56.28,21.44-15.6,12.74-24.88,29.08-29.82,48.22-1.77,6.86-1.65,6.9,5.68,6.89,35.82-.05,71.64,0,107.46-.28,4.69-.04,5.56,1.42,5.33,5.6-.33,6.31-.18,12.66-.05,18.99.07,3.62-.74,5.23-5.06,5.16-18.66-.31-37.32-.13-55.98-.13v-.07Z"/>
  <path class="cls-2" d="m195.34,3.21c-3.47,11.58-6.76,22.8-10.22,33.98-4.85,15.64-9.89,31.22-14.73,46.86-8.06,26.03-16.02,52.08-24.09,78.11-.73,2.34-.49,5.07-3.52,6.58-2.04,1.02,1.06,2.9.33,4.86-7.69,20.69-11.68,42.65-21.01,62.76-3.76,8.11-9.26,15.06-18.13,18.47-6.89,2.65-13.02,1.4-18.65-3.19-8.49-6.92-12.84-16.33-15.99-26.46-7.71-24.76-15.39-49.53-23.07-74.3-7.02-22.65-14.02-45.3-21.02-67.96C17.86,59,10.51,35.08,3.1,11.17c-.8-2.58-1.95-5.05-3.1-7.97,10.34,0,20.15.02,29.97-.02,1.96,0,2.84.77,3.43,2.72,6.55,21.62,13.18,43.21,19.87,64.79,5.42,17.5,10.99,34.96,16.43,52.47,9.28,29.89,18.52,59.79,27.93,90.22,3.04-4.26,3.41-9.01,4.78-13.34,7.35-23.33,14.55-46.71,21.84-70.06,8.23-26.38,16.51-52.73,24.72-79.11,4.53-14.55,9.01-29.12,13.36-43.72.85-2.85,1.93-4.15,5.26-4.04,9.13.3,18.28.1,27.75.1Z"/>
  <path class="cls-2" d="m667.25,142.7c0,34.81-.06,69.63.08,104.44.01,3.63-.69,4.92-4.6,4.74-7.65-.35-15.33-.36-22.98,0-3.97.19-4.55-1.21-4.54-4.77.11-69.29.02-138.58.2-207.88.01-4.92-1-6.3-6.11-6.19-17.98.37-35.98.06-53.96.2-3.16.02-4.29-.67-4.15-4.05.29-7.15.23-14.33.04-21.48-.08-2.85.78-3.6,3.59-3.59,17.15.06,34.3-.11,51.46-.13,33.48-.03,66.96.05,100.44-.1,3.65-.02,4.87.73,4.67,4.58-.36,6.81-.28,13.66-.02,20.48.12,3.29-.86,4.18-4.14,4.16-18.49-.11-36.98.14-55.46-.05-3.86-.04-4.56,1.08-4.55,4.7.15,34.98.09,69.96.09,104.94h-.04Z"/>
  <path class="cls-1" d="m1272.33,125.93c.05,19.13-3.9,37.59-12.06,54.7-11.9,24.96-29.9,44.17-56.02,55.21-12.71,5.37-25.88,8.53-39.24,11.27-2.76.57-4.73.1-4.46-3.73.36-5.31.49-10.69.01-15.97-.4-4.39,1.67-5.37,5.31-6.28,13.87-3.47,27.08-8.6,38.93-16.83,19.33-13.42,30.47-32.14,35.46-54.82,1.58-7.2,3.24-14.47,2.98-21.83-.92-26.25-8.8-49.87-27.79-68.81-11.6-11.57-25.24-19.8-41.32-23.78-3.79-.94-7.26-3.05-11.36-2.94-2.27.06-2.07-1.81-2.08-3.23-.06-6.16.04-12.33-.05-18.49-.03-2.19.65-2.95,2.92-2.67,22.87,2.84,44.16,9.52,62.34,24.48,12.86,10.58,23.88,22.61,31.88,37.26,7.12,13.03,11.67,26.88,13.7,41.66.68,4.96.58,9.86.86,14.8Z"/>
  <path class="cls-2" d="m635.66,275.18c-209.63,0-419.26,0-628.89,0-.33,0-.7.09-.99-.01-1.49-.54-4.32,1.36-4.36-1.45-.05-2.9,2.82-1.46,4.28-1.46,420.42-.07,840.85-.07,1261.27-.07,1,0,2,0,3,.03,1.09.04,1.29.75,1.26,1.68-.03.8-.45,1.22-1.19,1.24-1.5.05-3,.04-4.5.04-209.96,0-419.92,0-629.88,0Z"/>
  <path class="cls-2" d="m106.98,325.62c6.13,4.22,7.77,8.05,6.28,13.68-1.1,4.16-6.7,7.78-12.35,7.86-4.49.07-8.99-.2-13.46.09-3.23.21-3.84-1.02-3.79-3.96.17-10.8.14-21.61.02-32.42-.03-2.64.4-3.96,3.46-3.78,4.47.26,9.01-.24,13.45.19,4.38.43,9.24,1.36,10.43,6.49,1.01,4.34,1.15,9.07-4.04,11.84Zm-10.42,3.57q-8.32,0-8.3,8.21c0,.83.07,1.67-.01,2.5-.16,1.69.45,2.38,2.24,2.33,3.66-.1,7.36.3,10.97-.11,3.79-.43,6.28-2.44,5.85-6.91-.38-3.96-2.19-6.06-6.25-6.02-1.5.01-3,0-4.49,0Zm-.18-17q-8.14,0-8.11,7.7c0,.83.02,1.65,0,2.48-.04,1.17.36,1.91,1.67,1.82,3.9-.25,7.92.77,11.69-.82,3.3-1.39,5.01-3.42,3.76-7.49-1.71-5.56-6.09-2.98-9-3.69Z"/>
  <path class="cls-2" d="m1167.28,327.87c7.53,4.53,3.37,12.97,6.7,19.01-3.61.73-6.4.99-5.81-4.14.29-2.5-.4-5.2-1.05-7.7-.75-2.88-2.71-4.79-5.89-4.84-4.49-.06-9.99-1.59-13.21.44-3.6,2.27-.58,8.18-1.31,12.43-.29,1.68,1.09,4.08-2.47,4.19-3.74.12-2.86-2.31-2.87-4.29-.03-10.65.1-21.3-.08-31.95-.05-3,.6-4.25,3.8-3.91,6.37.67,12.76-.15,19.23.76,5.67.8,7.76,4.13,8.77,8.33,1.17,4.84-.93,8.98-5.81,11.67Zm-12.28-16.48q-8.78,0-8.75,8.62c0,.83.04,1.66,0,2.49-.09,1.6.44,2.5,2.23,2.42,4.63-.21,9.31.5,13.89-.6,3.2-.77,4.75-2.59,5.03-6.15.29-3.64-1.51-5.02-4.32-6.1-2.74-1.05-5.58-.53-8.08-.68Z"/>
  <path class="cls-2" d="m888.31,347.19c-10.7.1-17.98-7.65-18.08-19.25-.11-12.11,6.55-20.66,16.15-20.75,14.53-.13,21.69,6.34,21.9,19.47.19,12.04-7.43,21.94-19.97,20.52Zm13.94-19.89c0-.67-.02-1.33,0-2,.2-5.29-1.46-9.53-6.39-12.21-5.24-2.84-10.02-2.82-15.1.73-4.69,3.27-6.76,12.79-5.08,18.26,1.69,5.49,4.6,10.31,11.04,11,10.23,1.1,15.52-4.41,15.52-15.78Z"/>
  <path class="cls-2" d="m346.26,323.01c0-4.33.08-8.66-.04-12.98-.06-2.03.34-2.95,2.69-2.95,2.47,0,2.58,1.2,2.57,3.07-.04,7.32-.05,14.65.07,21.97.12,7.64,3.14,10.94,9.85,11.04,7.16.11,10.54-3.03,10.84-10.73.28-7.15.09-14.31.1-21.47,0-1.95-.52-3.95,2.79-3.9,3.05.05,2.52,1.91,2.51,3.64-.08,8.15.03,16.31-.37,24.45-.46,9.2-8,13-17.58,12.93-7.78-.06-13.38-6.59-13.39-14.59,0-3.5,0-6.99,0-10.49h-.03Z"/>
  <path class="cls-2" d="m624.29,307.16c4.49,0,8.98.02,13.46,0,1.42,0,2.53-.01,2.56,2.01.03,2.04-1.07,2.09-2.5,2.02-.17,0-.33,0-.5,0q-9.91.5-9.91,10.34c0,7.48-.05,14.96.04,22.44.02,2.1-.12,3.36-2.84,3.31-2.69-.05-2.35-1.6-2.35-3.25,0-9.14-.24-18.29.11-27.42.15-3.93-1.13-4.91-4.7-4.47-2.13.26-4.32.04-6.48.05-2.11.01-2.88-1.1-2.95-3.11-.09-2.61,1.79-1.86,3.09-1.88,4.32-.07,8.64-.03,12.97-.03Z"/>
  <path class="cls-2" d="m367.8,295.74c-3.06,2.84-3.7,7.9-9.19,6.18,1.56-3.77,2.32-8.54,9.19-6.18Z"/>
</svg>